<svg xmlns="http://www.w3.org/2000/svg" class="iconLeft" viewBox="0 0 598 90">
  <path fill="#FFFFFF" d="M189.39 75q-5.577 0-10.126-1.841-4.549-1.787-7.798-5.307-3.25-3.466-5.036-8.61-1.787-5.09-1.787-11.697 0-6.606 2.003-11.697 2.004-5.144 5.416-8.61 3.411-3.52 7.96-5.307 4.549-1.84 9.747-1.84 3.25 0 5.849.487 2.599.433 4.548 1.028 1.95.596 3.141 1.246 1.246.596 1.679.866l-2.112 6.065q-.704-.433-2.004-.974-1.245-.542-2.924-1.03-1.624-.54-3.52-.866-1.95-.379-3.899-.379-4.17 0-7.527 1.462-3.357 1.408-5.686 4.17-2.328 2.708-3.628 6.607-1.245 3.898-1.245 8.772 0 4.711 1.137 8.556 1.083 3.899 3.303 6.66 2.166 2.762 5.47 4.279 3.303 1.516 7.689 1.516 5.09 0 8.448-1.083 3.303-1.029 4.982-1.895l1.895 6.065q-.542.379-1.895.974-1.354.542-3.412 1.083-2.058.542-4.765.92-2.762.38-5.903.38Zm57.617-20.848q0 4.71-1.407 8.501-1.354 3.791-3.791 6.499-2.491 2.707-5.903 4.223-3.411 1.463-7.418 1.463-4.008 0-7.42-1.463-3.41-1.516-5.902-4.223-2.436-2.708-3.79-6.499-1.408-3.79-1.408-8.501 0-4.657 1.408-8.448 1.354-3.845 3.79-6.552 2.491-2.762 5.903-4.224 3.411-1.462 7.419-1.462 4.007 0 7.418 1.462 3.412 1.462 5.903 4.224 2.437 2.707 3.79 6.552 1.408 3.79 1.408 8.448Zm-7.364 0q0-6.661-3.033-10.56-2.978-3.953-8.122-3.953-5.145 0-8.177 3.953-2.979 3.899-2.979 10.56 0 6.66 2.979 10.56 3.032 3.898 8.177 3.898 5.144 0 8.122-3.899 3.033-3.899 3.033-10.56Zm17.274 19.71V35.579q2.437-.596 6.39-1.3 4.007-.704 9.206-.704 3.79 0 6.39 1.029 2.6 1.029 4.332 3.032.541-.379 1.679-1.083 1.137-.704 2.761-1.3 1.68-.65 3.737-1.136 2.058-.542 4.386-.542 4.549 0 7.419 1.354 2.924 1.3 4.549 3.736 1.624 2.437 2.166 5.794.595 3.304.595 7.257v22.148h-7.04V53.23q0-3.466-.378-6.01-.325-2.492-1.3-4.17-.92-1.625-2.545-2.437-1.625-.813-4.224-.813-3.574 0-5.848.975-2.329.92-3.141 1.679.595 2.003.866 4.332.325 2.329.325 4.928v22.148h-7.04V53.23q0-3.466-.379-6.01-.379-2.492-1.353-4.17-.921-1.625-2.546-2.437-1.624-.813-4.17-.813-1.028 0-2.274.109-1.19.054-2.274.162-1.137.109-2.004.271-.92.162-1.245.217v33.303h-7.04Zm65.253 0V35.579q2.437-.596 6.444-1.3 3.953-.704 9.206-.704 3.79 0 6.335 1.029 2.6 1.029 4.333 3.032.541-.379 1.678-1.083 1.138-.704 2.816-1.3 1.679-.65 3.683-1.136 2.057-.542 4.44-.542 4.549 0 7.419 1.354 2.87 1.3 4.494 3.736 1.625 2.437 2.22 5.794.542 3.304.542 7.257v22.148h-7.04V53.23q0-3.466-.325-6.01-.379-2.492-1.3-4.17-.974-1.625-2.598-2.437-1.625-.813-4.17-.813-3.574 0-5.903.975-2.328.92-3.14 1.679.595 2.003.92 4.332.27 2.329.27 4.928v22.148h-7.039V53.23q0-3.466-.379-6.01-.379-2.492-1.3-4.17-.974-1.625-2.599-2.437-1.624-.813-4.115-.813-1.083 0-2.275.109-1.245.054-2.328.162-1.083.109-2.004.271-.92.162-1.191.217v33.303h-7.094Zm78.628-5.09q2.491 0 4.44-.108 1.95-.108 3.25-.433v-11.75q-.758-.38-2.491-.65-1.679-.271-4.116-.271-1.624 0-3.357.27-1.787.217-3.304.92-1.462.705-2.436 1.95-.975 1.3-.975 3.304 0 3.79 2.383 5.306 2.436 1.463 6.606 1.463Zm-.596-35.306q4.224 0 7.148 1.083 2.925 1.083 4.712 3.086 1.787 2.004 2.545 4.82.758 2.762.758 6.065v24.639q-.92.162-2.545.433-1.625.27-3.683.487-2.057.217-4.44.434-2.383.162-4.711.162-3.358 0-6.173-.65-2.762-.704-4.82-2.166-2.058-1.516-3.195-3.899-1.137-2.437-1.137-5.848 0-3.25 1.354-5.632 1.3-2.328 3.574-3.79 2.274-1.408 5.307-2.112 3.032-.704 6.39-.704 1.028 0 2.166.108 1.137.162 2.166.325 1.028.216 1.787.325.758.162 1.083.27V48.9q0-1.733-.38-3.466-.378-1.678-1.407-2.978-.975-1.354-2.654-2.166-1.733-.758-4.44-.758-3.52 0-6.12.487-2.599.487-3.898 1.029l-.813-5.848q1.354-.596 4.55-1.192 3.14-.541 6.876-.541Zm57.022 35.144q11.534 0 11.534-7.852 0-2.437-1.028-4.17-1.03-1.678-2.762-2.924-1.787-1.245-4.007-2.166-2.22-.92-4.712-1.841-2.924-.975-5.469-2.22-2.6-1.246-4.495-2.979-1.895-1.678-2.978-4.06-1.083-2.33-1.083-5.687 0-6.877 4.657-10.722 4.711-3.899 12.997-3.899 4.765 0 8.664 1.03 3.899 1.028 5.74 2.22l-2.383 6.01q-1.57-.975-4.711-1.95-3.14-.92-7.31-.92-2.112 0-3.954.433-1.84.488-3.194 1.354-1.354.92-2.167 2.329-.758 1.408-.758 3.303 0 2.112.813 3.574.812 1.408 2.328 2.545 1.516 1.083 3.574 2.004 2.004.92 4.386 1.787 3.412 1.408 6.282 2.761 2.816 1.354 4.928 3.25 2.058 1.895 3.195 4.494 1.137 2.654 1.137 6.336 0 6.931-5.036 10.614Q466.376 75 457.224 75q-3.14 0-5.74-.433t-4.657-.975q-2.058-.596-3.52-1.191-1.462-.65-2.328-1.137l2.22-6.065q1.733.974 5.307 2.22 3.574 1.191 8.718 1.191Zm59.025-34.17v38.286q-2.382.595-6.39 1.3-3.953.65-9.205.65-4.549 0-7.636-1.3-3.14-1.354-5.036-3.791-1.895-2.383-2.707-5.686-.867-3.303-.867-7.31V34.44h7.094v20.632q0 7.202 2.274 10.289 2.275 3.087 7.636 3.087 1.137 0 2.328-.054 1.246-.055 2.275-.163 1.083-.162 1.95-.27.866-.109 1.245-.271V34.44h7.04ZM535.473 15v21.173q1.246-.812 3.9-1.733 2.598-.92 6.01-.92 4.224 0 7.527 1.516t5.578 4.224q2.274 2.762 3.465 6.552 1.192 3.79 1.192 8.34 0 4.765-1.408 8.61-1.408 3.79-4.007 6.444-2.546 2.653-6.228 4.115-3.628 1.462-8.177 1.462-4.928 0-8.718-.704t-6.228-1.353v-56.48L535.473 15Zm0 27.78v24.91q1.03.324 2.979.595 1.949.271 4.819.271 5.686 0 9.097-3.737 3.412-3.79 3.412-10.667 0-3.033-.596-5.686-.65-2.654-2.003-4.603-1.354-1.95-3.52-3.033t-5.199-1.083q-2.87 0-5.307.975-2.436.975-3.682 2.058Zm46.733 25.993q4.332 0 6.444-1.138 2.058-1.137 2.058-3.628 0-2.6-2.058-4.115-2.004-1.517-6.715-3.412-2.274-.92-4.386-1.841-2.058-.975-3.574-2.22-1.516-1.3-2.437-3.141-.92-1.787-.92-4.44 0-5.253 3.899-8.34 3.844-3.032 10.505-3.032 1.679 0 3.357.162 1.679.217 3.087.488 1.462.216 2.545.541 1.083.325 1.733.542l-1.3 6.065q-1.137-.596-3.574-1.246t-5.848-.65q-2.924 0-5.144 1.137-2.22 1.192-2.22 3.683 0 1.3.487 2.274.541 1.029 1.516 1.787 1.029.812 2.545 1.516 1.516.65 3.682 1.408 2.762 1.083 4.982 2.112 2.22 1.03 3.737 2.383 1.57 1.354 2.382 3.303.867 1.895.867 4.711 0 5.47-4.062 8.286-4.06 2.815-11.588 2.815-5.199 0-8.177-.92-2.924-.867-4.007-1.3l1.3-6.065q1.19.433 3.844 1.354 2.654.92 7.04.92Z"/>
  <path fill="#50C1AE" d="M126.036 0H19.964C9.325 0 .68 8.646.68 19.286v51.428C.679 81.354 9.325 90 19.964 90h106.072c10.639 0 19.285-8.646 19.285-19.286V19.286C145.321 8.646 136.675 0 126.036 0zm12.857 70.714c0 7.088-5.77 12.857-12.857 12.857H19.964c-7.087 0-12.857-5.77-12.857-12.857V19.286c0-7.088 5.77-12.857 12.857-12.857h106.072c7.087 0 12.857 5.77 12.857 12.857v51.428zM32.82 28.93a3.224 3.224 0 0 1 3.215-3.215h12.857c1.768 0 3.214 1.447 3.214 3.215s-1.446 3.214-3.214 3.214H36.036a3.224 3.224 0 0 1-3.215-3.214zm80.358 0a3.224 3.224 0 0 1-3.215 3.214h-45c-1.768 0-3.214-1.447-3.214-3.214s1.446-3.215 3.214-3.215h45a3.224 3.224 0 0 1 3.215 3.215zM52.107 61.07a3.224 3.224 0 0 1-3.214 3.215H36.036c-1.768 0-3.215-1.447-3.215-3.215s1.447-3.214 3.215-3.214h12.857a3.224 3.224 0 0 1 3.214 3.214zm61.072 0a3.224 3.224 0 0 1-3.215 3.215h-45c-1.768 0-3.214-1.447-3.214-3.215s1.446-3.214 3.214-3.214h45a3.224 3.224 0 0 1 3.215 3.214zm0-16.071a3.224 3.224 0 0 1-3.215 3.214H97.107c-1.768 0-3.214-1.446-3.214-3.214s1.446-3.214 3.214-3.214h12.857A3.224 3.224 0 0 1 113.18 45zM32.82 45a3.224 3.224 0 0 1 3.215-3.214h45c1.768 0 3.214 1.446 3.214 3.214s-1.446 3.214-3.214 3.214h-45A3.224 3.224 0 0 1 32.82 45z"/>
</svg>
